<svg id="svg" version="1.1" xmlns="http://www.w3.org/2000/svg" xmlns:xlink="http://www.w3.org/1999/xlink" width="400" height="397.23183391003465" viewBox="0, 0, 400,397.23183391003465"><g id="svgg"><path id="path0" d="" stroke="none" fill="#fcfcfc" fill-rule="evenodd"></path><path id="path1" d="M189.735 4.290 C 189.227 4.337,187.151 4.489,185.121 4.626 C 130.176 8.351,77.995 36.978,44.242 81.914 C 12.283 124.460,-0.738 178.443,8.202 231.323 C 22.768 317.475,93.791 383.540,180.969 392.027 C 273.485 401.034,359.240 343.755,386.265 254.902 C 394.838 226.713,396.792 195.215,391.798 165.678 C 379.588 93.462,327.004 33.789,256.752 12.426 C 243.753 8.474,230.418 5.952,215.340 4.596 C 212.710 4.359,191.684 4.108,189.735 4.290 M211.649 30.223 C 313.191 37.506,385.629 132.280,365.523 231.542 C 343.521 340.160,224.600 398.754,125.490 349.810 C 24.722 300.047,-0.302 168.220,75.223 85.006 C 105.798 51.318,146.766 32.329,194.118 29.895 C 196.870 29.754,208.010 29.962,211.649 30.223 M89.273 198.731 L 89.273 309.573 200.115 309.573 L 310.957 309.573 310.957 198.731 L 310.957 87.889 200.115 87.889 L 89.273 87.889 89.273 198.731 M285.352 198.731 L 285.352 283.968 200.115 283.968 L 114.879 283.968 114.879 198.731 L 114.879 113.495 200.115 113.495 L 285.352 113.495 285.352 198.731 M159.573 158.189 C 137.529 180.234,119.493 198.374,119.493 198.501 C 119.493 198.803,199.584 278.893,199.885 278.893 C 200.187 278.893,280.277 198.802,280.277 198.500 C 280.277 198.198,200.186 118.108,199.884 118.108 C 199.757 118.108,181.617 136.145,159.573 158.189 M221.857 220.472 L 199.886 242.445 177.913 220.473 L 155.940 198.501 177.912 176.529 L 199.884 154.556 221.857 176.528 L 243.829 198.500 221.857 220.472 " stroke="none" fill="#ffffff" fill-rule="evenodd"></path><path id="path2" d="" stroke="none" fill="#100fcfc" fill-rule="evenodd"></path><path id="path3" d="" stroke="none" fill="#100fcfc" fill-rule="evenodd"></path><path id="path4" d="" stroke="none" fill="#100fcfc" fill-rule="evenodd"></path></g></svg>